HIERARCHY
ROOT Hips
{
    OFFSET 0.000000 0.000000 0.000000
    CHANNELS 6 Xposition Yposition Zposition Zrotation Xrotation Yrotation
    JOINT Spine
    {
        OFFSET -0.000000 14.517291 0.000000
        CHANNELS 3 Zrotation Xrotation Yrotation
        JOINT Spine1
        {
            OFFSET -0.000000 37.558300 0.000000
            CHANNELS 3 Zrotation Xrotation Yrotation
            JOINT Neck
            {
                OFFSET -0.000000 37.404057 3.400369
                CHANNELS 3 Zrotation Xrotation Yrotation
                JOINT Head
                {
                    OFFSET -0.000000 24.785618 -3.540803
                    CHANNELS 3 Zrotation Xrotation Yrotation
                    End Site
                    {
                        OFFSET -0.000000 35.408028 0.000000
                    }
                }
            }
            JOINT LeftShoulder
            {
                OFFSET 6.992933 33.973492 -0.192664
                CHANNELS 3 Zrotation Xrotation Yrotation
                JOINT LeftArm
                {
                    OFFSET 21.527611 0.000000 0.000000
                    CHANNELS 3 Zrotation Xrotation Yrotation
                    JOINT LeftForeArm
                    {
                        OFFSET 56.353916 0.000000 0.000000
                        CHANNELS 3 Zrotation Xrotation Yrotation
                        JOINT LeftHand
                        {
                            OFFSET 47.774071 0.000000 0.000000
                            CHANNELS 3 Zrotation Xrotation Yrotation
                            End Site
                            {
                                OFFSET 26.556021 0.000000 0.000000
                            }
                        }
                    }
                }
            }
            JOINT RightShoulder
            {
                OFFSET -7.065357 33.973492 -0.192664
                CHANNELS 3 Zrotation Xrotation Yrotation
                JOINT RightArm
                {
                    OFFSET -21.527611 0.000000 0.000000
                    CHANNELS 3 Zrotation Xrotation Yrotation
                    JOINT RightForeArm
                    {
                        OFFSET -56.353916 0.000000 0.000000
                        CHANNELS 3 Zrotation Xrotation Yrotation
                        JOINT RightHand
                        {
                            OFFSET -47.774071 0.000000 0.000000
                            CHANNELS 3 Zrotation Xrotation Yrotation
                            End Site
                            {
                                OFFSET -26.556021 0.000000 0.000000
                            }
                        }
                    }
                }
            }
        }
    }
    JOINT LeftUpLeg
    {
        OFFSET 17.704014 0.000000 0.000000
        CHANNELS 3 Zrotation Xrotation Yrotation
        JOINT LeftLeg
        {
            OFFSET -0.000000 -81.181816 0.000000
            CHANNELS 3 Zrotation Xrotation Yrotation
            JOINT LeftFoot
            {
                OFFSET -0.000000 -62.821102 0.000000
                CHANNELS 3 Zrotation Xrotation Yrotation
                JOINT LeftToeBase
                {
                    OFFSET -0.000000 -11.507608 26.556021
                    CHANNELS 3 Zrotation Xrotation Yrotation
                    End Site
                    {
                        OFFSET -0.000000 0.000000 7.081605
                    }
                }
            }
        }
    }
    JOINT RightUpLeg
    {
        OFFSET -17.704014 0.000000 0.000000
        CHANNELS 3 Zrotation Xrotation Yrotation
        JOINT RightLeg
        {
            OFFSET -0.000000 -81.181816 0.000000
            CHANNELS 3 Zrotation Xrotation Yrotation
            JOINT RightFoot
            {
                OFFSET -0.000000 -62.821102 0.000000
                CHANNELS 3 Zrotation Xrotation Yrotation
                JOINT RightToeBase
                {
                    OFFSET -0.000000 -11.507608 26.556021
                    CHANNELS 3 Zrotation Xrotation Yrotation
                    End Site
                    {
                        OFFSET -0.000000 0.000000 7.081605
                    }
                }
            }
        }
    }
}
MOTION
Frames:    4
Frame Time:    0.008333
-10.677424    151.062042    -96.760353    1.298710    -4.769550    37.633099    -3.022184    -0.122744    -5.200446    -2.001889    2.246018    -1.695040    4.462580    6.699708    -16.244055    11.722258    -2.872906    -15.394649    4.771214    8.672366    -14.372562    -35.708000    21.725391    -47.076336    -3.413859    -24.977505    -121.329224    -7.276762    -29.723387    -11.564375    -6.701596    6.502456    -14.491261    22.310555    5.546164    5.066816    -6.123257    9.285147    87.522369    -18.702290    11.686578    20.623114    16.727966    0.656040    -2.031930    -19.267591    40.117413    -18.007269    8.676546    -33.918087    53.442307    0.000000    0.000000    0.000000    -22.321077    -20.488474    -20.409300    9.762568    30.806458    -15.701414    4.268939    5.250215    -6.899073    0.000000    0.000000    0.000000    
-10.737807    151.061203    -96.771904    1.298422    -4.767635    37.665005    -2.993495    -0.098413    -5.133189    -2.056607    2.214756    -1.672321    4.433994    6.694183    -16.363794    11.806639    -2.809984    -15.510447    4.810012    8.693900    -14.333560    -35.678253    21.724958    -47.167252    -3.408033    -25.025620    -121.314064    -7.323350    -29.752764    -11.597424    -6.562770    6.464452    -14.332138    22.210093    5.360337    5.483594    -5.988668    9.397364    87.372124    -18.742044    11.657188    20.575056    16.747271    0.623485    -2.064033    -19.282295    40.115372    -18.008831    8.672352    -33.917625    53.446384    0.000000    0.000000    0.000000    -22.310127    -20.481075    -20.443035    9.751791    30.787296    -15.667115    4.263827    5.232554    -6.925731    0.000000    0.000000    0.000000    
-10.798444    151.060318    -96.782494    1.295595    -4.765783    37.696316    -3.234479    -0.454685    -4.929827    -1.804813    2.794643    -1.597043    4.663432    6.819565    -16.404675    11.651945    -3.270986    -15.547295    4.979593    8.578567    -14.675228    -35.744968    21.587372    -47.306213    -3.319453    -25.216303    -121.150673    -7.335773    -29.778646    -11.626380    -6.280195    6.585348    -14.121737    21.960461    4.958952    5.837408    -5.985228    9.204033    87.103218    -18.499178    11.457424    20.711809    16.770702    0.590036    -2.094097    -19.301592    40.110050    -17.997026    8.669367    -33.901337    53.448483    0.000000    0.000000    0.000000    -22.298725    -20.476360    -20.466257    9.747251    30.769905    -15.651949    4.250368    5.214746    -6.930574    0.000000    0.000000    0.000000    
-10.866172    151.061508    -96.789780    1.296285    -4.765667    37.726639    -3.246133    -0.442431    -4.861325    -1.784155    2.787098    -1.574919    4.636941    6.831005    -16.450226    11.666133    -3.269807    -15.589946    4.956769    8.575941    -14.678214    -35.740898    21.582106    -47.315319    -3.321211    -25.245960    -121.165184    -7.333333    -29.811203    -11.631367    -6.172106    6.552516    -13.951510    21.815948    4.637122    6.347392    -5.630675    9.525061    86.874832    -18.661041    11.410832    20.608870    16.792170    0.555275    -2.098141    -19.299187    40.117336    -18.021111    8.598766    -34.039722    53.527321    0.000000    0.000000    0.000000    -22.284727    -20.477316    -20.501167    9.727209    30.768679    -15.628091    4.239779    5.202035    -6.943192    0.000000    0.000000    0.000000    
